<svg viewBox="0 0 16 16"
    xmlns="http://www.w3.org/2000/svg"
    xmlns:xlink="http://www.w3.org/1999/xlink">
    <g transform="scale(0.66)">
        <path d="M12,2 C17.5166667,2 22,6.48333333 22,12 C22,17.5166667 17.5166667,22 12,22 C6.48333333,22 2,17.5166667 2,12 C2,6.48333333 6.48333333,2 12,2 Z M14.4,4.9 C11.6666667,3.98333333 8.5,4.675 6.41666667,7.00833333 C4.46666667,9.18333333 4.05,12.375 5.2,15.0583333 C5.58333333,15.9583333 6.09166667,16.6833333 6.68333333,17.2833333 C7.34166667,17.9416667 8.40833333,17.9583333 9.06666667,17.3 L9.06666667,17.3 L14.3666667,12 C14.6916667,11.675 15.2166667,11.675 15.5416667,12 C15.8666667,12.325 15.8666667,12.85 15.5416667,13.175 L15.5416667,13.175 L9.61666667,19.1 C12.35,20.0166667 15.5166667,19.325 17.6,16.9916667 C19.5416667,14.8166667 19.9583333,11.625 18.8166667,8.94166667 C18.4333333,8.04166667 17.925,7.31666667 17.3333333,6.71666667 C16.675,6.05833333 15.6083333,6.04166667 14.95,6.7 L14.95,6.7 L9.65,12 C9.325,12.325 8.8,12.325 8.475,12 C8.15,11.675 8.15,11.15 8.475,10.825 L8.475,10.825 Z" fill="#2ba640"></path>
    </g>
</svg>